<?xml version="1.0" encoding="UTF-8"?>
<svg id="Layer_2" data-name="Layer 2" xmlns="http://www.w3.org/2000/svg" viewBox="0 0 196.55 96.64">
  <defs>
    <style>
      .cls-1 {
        fill: #e76324;
      }

      .cls-2 {
        fill: #fff;
      }
    </style>
  </defs>
  <path class="cls-1" d="M51.19,29.18l-23.88,51.46h5.44l7.57-16.71,1.97-4.26,11.11-24.35,2.99-6.15h-5.2Z"/>
  <path class="cls-2" d="M57.39,3.77h-8.79L8.24,90.75h9.19l12.79-28.24,3.33-7.19L52.33,14.16h.8l18.78,41.16,3.2,7.19,12.89,28.24h9.72L57.39,3.77Z"/>
  <path class="cls-2" d="M188.3,3.77v56.07c0,21.04-16.25,33.03-38.09,33.03s-37.82-11.99-37.82-33.03V3.77h8.92v56.07c0,16.11,12.52,25.04,28.9,25.04s29.17-8.92,29.17-25.04V3.77h8.92Z"/>
  <path class="cls-1" d="M148,79.58c-2-.07-3.9-.3-5.69-.67-9.42-2.16-15.92-8.86-15.92-19.18v-26.74l5.36,2.73v24.01c0,6.13,3,10.52,7.73,12.92,1.83.93,3.93,1.57,6.19,1.9l2.33,5.03Z"/>
</svg>
