<svg xmlns="http://www.w3.org/2000/svg" width="560" height="433" viewBox="0 0 560 433">
<rect x="0" y="0" width="560" height="433" fill="#0D1117"/>
<text x="280.0" y="40" font-family="Arial, Helvetica, sans-serif" font-size="25" font-weight="bold" fill="#FFFFFF" text-anchor="middle" letter-spacing="0">ECB Mode Decryption</text>
<text x="280.0" y="108" font-family="Arial, Helvetica, sans-serif" font-size="15" font-weight="normal" fill="#B0BEC5" text-anchor="middle" letter-spacing="0">Ciphertext</text>
<rect x="132.5" y="120" width="20" height="30" rx="3" fill="#161B22" stroke="#E76324" stroke-width="1.8"/>
<rect x="157.5" y="120" width="20" height="30" rx="3" fill="#161B22" stroke="#E76324" stroke-width="1.8"/>
<rect x="182.5" y="120" width="20" height="30" rx="3" fill="#161B22" stroke="#E76324" stroke-width="1.8"/>
<rect x="207.5" y="120" width="20" height="30" rx="3" fill="#161B22" stroke="#E76324" stroke-width="1.8"/>
<rect x="232.5" y="120" width="20" height="30" rx="3" fill="#161B22" stroke="#E76324" stroke-width="1.8"/>
<rect x="257.5" y="120" width="20" height="30" rx="3" fill="#161B22" stroke="#E76324" stroke-width="1.8"/>
<rect x="282.5" y="120" width="20" height="30" rx="3" fill="#161B22" stroke="#E76324" stroke-width="1.8"/>
<rect x="307.5" y="120" width="20" height="30" rx="3" fill="#161B22" stroke="#E76324" stroke-width="1.8"/>
<rect x="332.5" y="120" width="20" height="30" rx="3" fill="#161B22" stroke="#E76324" stroke-width="1.8"/>
<rect x="357.5" y="120" width="20" height="30" rx="3" fill="#161B22" stroke="#E76324" stroke-width="1.8"/>
<rect x="382.5" y="120" width="20" height="30" rx="3" fill="#161B22" stroke="#E76324" stroke-width="1.8"/>
<rect x="407.5" y="120" width="20" height="30" rx="3" fill="#161B22" stroke="#E76324" stroke-width="1.8"/>
<line x1="280.0" y1="156.0" x2="280.0" y2="197.0" stroke="#B0BEC5" stroke-width="2.4" stroke-linecap="round"/>
<polygon points="280.0,208.0 276.0,197.0 284.0,197.0" fill="#B0BEC5"/>
<rect x="148.0" y="212" width="264" height="96" rx="8" fill="#161B22" stroke="#1F2B38" stroke-width="2"/>
<text x="280.0" y="254.39" font-family="Arial, Helvetica, sans-serif" font-size="17" font-weight="bold" fill="#FFFFFF" text-anchor="middle" letter-spacing="0">Block cipher</text>
<text x="280.0" y="277.34" font-family="Arial, Helvetica, sans-serif" font-size="17" font-weight="bold" fill="#FFFFFF" text-anchor="middle" letter-spacing="0">decryption</text>
<circle cx="70" cy="260" r="9.3" fill="none" stroke="#E76324" stroke-width="4.7"/>
<line x1="79.3" y1="260" x2="104.0" y2="260" stroke="#E76324" stroke-width="4.7" stroke-linecap="round"/>
<line x1="92.1" y1="260" x2="92.1" y2="268.5" stroke="#E76324" stroke-width="3.8" stroke-linecap="round"/>
<line x1="98.9" y1="260" x2="98.9" y2="268.5" stroke="#E76324" stroke-width="3.8" stroke-linecap="round"/>
<line x1="118.0" y1="260.0" x2="129.0" y2="260.0" stroke="#E76324" stroke-width="2.4" stroke-linecap="round"/>
<polygon points="140.0,260.0 129.0,264.0 129.0,256.0" fill="#E76324"/>
<text x="70" y="220" font-family="Arial, Helvetica, sans-serif" font-size="13" font-weight="bold" fill="#E76324" text-anchor="middle" letter-spacing="0">Key</text>
<line x1="280.0" y1="308.0" x2="280.0" y2="347.0" stroke="#B0BEC5" stroke-width="2.4" stroke-linecap="round"/>
<polygon points="280.0,358.0 276.0,347.0 284.0,347.0" fill="#B0BEC5"/>
<rect x="132.5" y="362" width="20" height="30" rx="3" fill="#161B22" stroke="#B0BEC5" stroke-width="1.8"/>
<rect x="157.5" y="362" width="20" height="30" rx="3" fill="#161B22" stroke="#B0BEC5" stroke-width="1.8"/>
<rect x="182.5" y="362" width="20" height="30" rx="3" fill="#161B22" stroke="#B0BEC5" stroke-width="1.8"/>
<rect x="207.5" y="362" width="20" height="30" rx="3" fill="#161B22" stroke="#B0BEC5" stroke-width="1.8"/>
<rect x="232.5" y="362" width="20" height="30" rx="3" fill="#161B22" stroke="#B0BEC5" stroke-width="1.8"/>
<rect x="257.5" y="362" width="20" height="30" rx="3" fill="#161B22" stroke="#B0BEC5" stroke-width="1.8"/>
<rect x="282.5" y="362" width="20" height="30" rx="3" fill="#161B22" stroke="#B0BEC5" stroke-width="1.8"/>
<rect x="307.5" y="362" width="20" height="30" rx="3" fill="#161B22" stroke="#B0BEC5" stroke-width="1.8"/>
<rect x="332.5" y="362" width="20" height="30" rx="3" fill="#161B22" stroke="#B0BEC5" stroke-width="1.8"/>
<rect x="357.5" y="362" width="20" height="30" rx="3" fill="#161B22" stroke="#B0BEC5" stroke-width="1.8"/>
<rect x="382.5" y="362" width="20" height="30" rx="3" fill="#161B22" stroke="#B0BEC5" stroke-width="1.8"/>
<rect x="407.5" y="362" width="20" height="30" rx="3" fill="#161B22" stroke="#B0BEC5" stroke-width="1.8"/>
<text x="280.0" y="418" font-family="Arial, Helvetica, sans-serif" font-size="15" font-weight="normal" fill="#B0BEC5" text-anchor="middle" letter-spacing="0">Plaintext</text>
</svg>
