<svg xmlns="http://www.w3.org/2000/svg" width="538" height="364" viewBox="51 62 538 364" role="img" aria-label="Single-bit parity check">
<rect x="51" y="62" width="538" height="364" fill="#0D1117"/>
  <text x="286" y="82" text-anchor="middle" font-family="Arial, Helvetica, sans-serif" font-size="15" font-weight="700" letter-spacing="1.6" fill="#FFFFFF">SENT</text>
  <text x="90.0" y="100" text-anchor="middle" font-family="Arial, Helvetica, sans-serif" font-size="10" letter-spacing="0.5" fill="#455A64">1</text>
  <text x="146.0" y="100" text-anchor="middle" font-family="Arial, Helvetica, sans-serif" font-size="10" letter-spacing="0.5" fill="#455A64">2</text>
  <text x="202.0" y="100" text-anchor="middle" font-family="Arial, Helvetica, sans-serif" font-size="10" letter-spacing="0.5" fill="#455A64">3</text>
  <text x="258.0" y="100" text-anchor="middle" font-family="Arial, Helvetica, sans-serif" font-size="10" letter-spacing="0.5" fill="#455A64">4</text>
  <text x="314.0" y="100" text-anchor="middle" font-family="Arial, Helvetica, sans-serif" font-size="10" letter-spacing="0.5" fill="#455A64">5</text>
  <text x="370.0" y="100" text-anchor="middle" font-family="Arial, Helvetica, sans-serif" font-size="10" letter-spacing="0.5" fill="#455A64">6</text>
  <text x="426.0" y="100" text-anchor="middle" font-family="Arial, Helvetica, sans-serif" font-size="10" letter-spacing="0.5" fill="#455A64">7</text>
  <text x="482.0" y="100" text-anchor="middle" font-family="Arial, Helvetica, sans-serif" font-size="10" letter-spacing="0.5" fill="#455A64">8</text>
  <text x="550.0" y="100" text-anchor="middle" font-family="Arial, Helvetica, sans-serif" font-size="10" font-weight="700" letter-spacing="0.5" fill="#4FA3D1">PARITY</text>
  <rect x="62" y="110" width="56" height="52" fill="#161B22" />
  <rect x="118" y="110" width="56" height="52" fill="#161B22" />
  <rect x="174" y="110" width="56" height="52" fill="#161B22" />
  <rect x="230" y="110" width="56" height="52" fill="#161B22" />
  <rect x="286" y="110" width="56" height="52" fill="#161B22" />
  <rect x="342" y="110" width="56" height="52" fill="#161B22" />
  <rect x="398" y="110" width="56" height="52" fill="#161B22" />
  <rect x="454" y="110" width="56" height="52" fill="#161B22" />
  <g stroke="#1F2B38" stroke-width="1.25" fill="none">
    <line x1="62" y1="110" x2="62" y2="162" />
    <line x1="118" y1="110" x2="118" y2="162" />
    <line x1="174" y1="110" x2="174" y2="162" />
    <line x1="230" y1="110" x2="230" y2="162" />
    <line x1="286" y1="110" x2="286" y2="162" />
    <line x1="342" y1="110" x2="342" y2="162" />
    <line x1="398" y1="110" x2="398" y2="162" />
    <line x1="454" y1="110" x2="454" y2="162" />
    <line x1="510" y1="110" x2="510" y2="162" />
    <line x1="62" y1="110" x2="510" y2="110" />
    <line x1="62" y1="162" x2="510" y2="162" />
  </g>
  <text x="90.0" y="144.0" text-anchor="middle" font-family="Arial, Helvetica, sans-serif" font-size="22" font-weight="700" fill="#E6EDF3">1</text>
  <text x="146.0" y="144.0" text-anchor="middle" font-family="Arial, Helvetica, sans-serif" font-size="22" font-weight="700" fill="#E6EDF3">0</text>
  <text x="202.0" y="144.0" text-anchor="middle" font-family="Arial, Helvetica, sans-serif" font-size="22" font-weight="700" fill="#E6EDF3">1</text>
  <text x="258.0" y="144.0" text-anchor="middle" font-family="Arial, Helvetica, sans-serif" font-size="22" font-weight="700" fill="#E6EDF3">1</text>
  <text x="314.0" y="144.0" text-anchor="middle" font-family="Arial, Helvetica, sans-serif" font-size="22" font-weight="700" fill="#E6EDF3">0</text>
  <text x="370.0" y="144.0" text-anchor="middle" font-family="Arial, Helvetica, sans-serif" font-size="22" font-weight="700" fill="#E6EDF3">0</text>
  <text x="426.0" y="144.0" text-anchor="middle" font-family="Arial, Helvetica, sans-serif" font-size="22" font-weight="700" fill="#E6EDF3">1</text>
  <text x="482.0" y="144.0" text-anchor="middle" font-family="Arial, Helvetica, sans-serif" font-size="22" font-weight="700" fill="#E6EDF3">1</text>
  <rect x="522" y="110" width="56" height="52" fill="#1A6A9E" fill-opacity="0.20" stroke="#1A6A9E" stroke-width="1.5" />
  <text x="550.0" y="144.0" text-anchor="middle" font-family="Arial, Helvetica, sans-serif" font-size="22" font-weight="700" fill="#4FA3D1">1</text>
  <g>
    <path d="M 309 186 H 331 V 256 H 349 L 320 294 L 291 256 H 309 Z" fill="#1A6A9E" fill-opacity="0.22" stroke="#1A6A9E" stroke-width="1.5" stroke-linejoin="round" />
    <text x="366" y="234" font-family="Arial, Helvetica, sans-serif" font-size="14" letter-spacing="0.6" fill="#B0BEC5">Transmission</text>
  </g>
  <rect x="62" y="310" width="56" height="52" fill="#161B22" />
  <rect x="118" y="310" width="56" height="52" fill="#161B22" />
  <rect x="174" y="310" width="56" height="52" fill="#161B22" />
  <rect x="230" y="310" width="56" height="52" fill="#161B22" />
  <rect x="286" y="310" width="56" height="52" fill="#161B22" />
  <rect x="342" y="310" width="56" height="52" fill="#E76324" fill-opacity="0.18" />
  <rect x="398" y="310" width="56" height="52" fill="#161B22" />
  <rect x="454" y="310" width="56" height="52" fill="#161B22" />
  <g stroke="#1F2B38" stroke-width="1.25" fill="none">
    <line x1="62" y1="310" x2="62" y2="362" />
    <line x1="118" y1="310" x2="118" y2="362" />
    <line x1="174" y1="310" x2="174" y2="362" />
    <line x1="230" y1="310" x2="230" y2="362" />
    <line x1="286" y1="310" x2="286" y2="362" />
    <line x1="342" y1="310" x2="342" y2="362" />
    <line x1="398" y1="310" x2="398" y2="362" />
    <line x1="454" y1="310" x2="454" y2="362" />
    <line x1="510" y1="310" x2="510" y2="362" />
    <line x1="62" y1="310" x2="510" y2="310" />
    <line x1="62" y1="362" x2="510" y2="362" />
  </g>
  <rect x="342.75" y="310.75" width="54.5" height="50.5" fill="none" stroke="#E76324" stroke-width="1.5" />
  <text x="90.0" y="344.0" text-anchor="middle" font-family="Arial, Helvetica, sans-serif" font-size="22" font-weight="700" fill="#E6EDF3">1</text>
  <text x="146.0" y="344.0" text-anchor="middle" font-family="Arial, Helvetica, sans-serif" font-size="22" font-weight="700" fill="#E6EDF3">0</text>
  <text x="202.0" y="344.0" text-anchor="middle" font-family="Arial, Helvetica, sans-serif" font-size="22" font-weight="700" fill="#E6EDF3">1</text>
  <text x="258.0" y="344.0" text-anchor="middle" font-family="Arial, Helvetica, sans-serif" font-size="22" font-weight="700" fill="#E6EDF3">1</text>
  <text x="314.0" y="344.0" text-anchor="middle" font-family="Arial, Helvetica, sans-serif" font-size="22" font-weight="700" fill="#E6EDF3">0</text>
  <text x="370.0" y="344.0" text-anchor="middle" font-family="Arial, Helvetica, sans-serif" font-size="22" font-weight="700" fill="#E76324">1</text>
  <text x="426.0" y="344.0" text-anchor="middle" font-family="Arial, Helvetica, sans-serif" font-size="22" font-weight="700" fill="#E6EDF3">1</text>
  <text x="482.0" y="344.0" text-anchor="middle" font-family="Arial, Helvetica, sans-serif" font-size="22" font-weight="700" fill="#E6EDF3">1</text>
  <rect x="522" y="310" width="56" height="52" fill="#1A6A9E" fill-opacity="0.20" stroke="#1A6A9E" stroke-width="1.5" />
  <text x="550.0" y="344.0" text-anchor="middle" font-family="Arial, Helvetica, sans-serif" font-size="22" font-weight="700" fill="#4FA3D1">1</text>
  <text x="286" y="416" text-anchor="middle" font-family="Arial, Helvetica, sans-serif" font-size="15" font-weight="700" letter-spacing="1.6" fill="#FFFFFF">RECEIVED</text>
</svg>